<svg xmlns="http://www.w3.org/2000/svg" viewBox="0 0 253.52 50.72">
            <title>Softcom Ltd</title>
            <g>
                <polygon points="104.22 16.29 104.22 16.29 104.23 16.29 104.22 16.29" style="fill: #0097cd"></polygon>
                <polygon points="102.9 22.04 104.23 22.04 102.91 22.03 102.9 22.04" style="fill: #0097cd"></polygon>
                <polygon points="158.63 36.11 158.64 36.1 158.63 36.1 158.63 36.11" style="fill: #0097cd"></polygon>
                <path d="M30.28,22.23h-.19q.7.24,1.39.5Z" style="fill: #0097cd"></path>
                <polygon points="196.39 25.72 196.39 25.71 196.39 25.72 196.39 25.72" style="fill: #0097cd"></polygon>
                <path d="M217.52,24.73l2.38,0-2.38,0Z" style="fill: #0097cd"></path>
                <path d="M200.59,50.31l2.35-6.77a71.83,71.83,0,0,0-11.47,6.77Z" style="fill: #0097cd"></path>
                <path d="M182.92,31.44l-2.2,6.33a7.13,7.13,0,0,1-7,5.44c-5.82-.07-3.15-6.47-3.15-6.47l.7-1.87c-12.59,3-22.53,11.54-26.15,15,6.93-1.51,9.74-4.08,12.08-7A14.86,14.86,0,0,0,158.3,41c1.24,9,13.62,9.38,13.62,9.38,12.45.08,16.8-4.75,19-8.65.17-.31.36-.68.54-1.08l-2.26,6.78a84.5,84.5,0,0,1,15.11-7.74l4.3-12.39C204.45,27.65,189.57,29.23,182.92,31.44Z" style="fill: #ffb600"></path>
                <path d="M229.4,31.13l1.21-4.26s.08-.28.23-.7c-4,0-8.57.12-13.53.4-.12.61-.25,1.26-.45,2l-.76,2.58-1.32,4.92a105.36,105.36,0,0,1,14-2.74Z" style="fill: #ffb600"></path>
                <path d="M211.22,49.4l13.38,0,3.66-13.9A117.36,117.36,0,0,0,214,39Z" style="fill: #0097cd"></path>
                <path d="M250.77,32.68,252,28.31c-3.32-.27-7.89-.57-13.3-.76l0,.08-1.32,4.95A119,119,0,0,1,250.77,32.68Z" style="fill: #ffb600"></path>
                <path d="M232.85,49.37l13.38,0,4.41-16.21c-3.44.08-8.21.33-13.74,1Z" style="fill: #0097cd"></path>
                <path d="M243.67,12.74c-3.74-.31-11.3.19-14.19,6.15,0,0,1.19-6.23-10.25-6.23-2.5,0-5.88-.12-9.13,4l-1.93-3.54h-7.73l-3,8.13-1,3c.1-8.72-7.46-11.36-14.15-11.33-10.14,0-15.5,4.07-18.23,8.54a28.33,28.33,0,0,0-1.35,2.56c-.47-8.26-8.85-10.8-15.39-10.77-8.44,0-13.55,2.83-16.61,6.34l0,0,.78-3.4-6.76.11,2.76-10.84-14.9,3.57-2.25,7.15h-6.1l-4,0s1-3.57,1.42-4.75c1-3,2.66-8.27,7.44-6.12l2-4.34s-9.68-2.72-16,.33c-3.5,1.69-6.31,4-9.48,14.84H79.6l-.76,3.29c-2.28-4.72-8-6.29-13.13-6.27-10.14,0-15.49,4.07-18.23,8.54A52.68,52.68,0,0,0,42.76,33.7c0-.13,0-.25-.06-.35a9.14,9.14,0,0,0-.88-2.43c-1.93-3.65-6.2-6.39-10.33-8.18q-.69-.26-1.39-.5c-.94-.32-1.91-.6-2.89-.85-10.19-2.6-9.81-6.21-8.94-8.58S21.89,8,27.45,8.51c6.81.65,4.72,8.69,4.72,8.69l13.54,0a51.12,51.12,0,0,0,.52-5.6C45.86,2,34.07.42,29.06.17,3.88-1.1,2.73,14.3,3.35,17.31A10.49,10.49,0,0,0,6,22.23a25.24,25.24,0,0,0,8.54,5.69,39,39,0,0,0,4.31,1.37c10.18,2.6,9.81,6.21,8.94,8.58s-3.63,4.82-9.19,4.29a5.2,5.2,0,0,1-3.8-1.87c-2-2.57-1.82-6.82-1.82-6.82H0s-2.25,18.2,25.45,16.93c9.94-1.07,14.32-5.47,16.14-9.59.82,9.45,13.68,9.9,13.68,9.9,12.45.08,16.81-4.75,19-8.65,1.66-3,4.43-11.07,4.43-11.07A18,18,0,0,0,79.65,22H84.3L75.82,50.63h14.6L98.85,22l4.06,0h5.6L104,38.49c-2.38,9.54,4,11.85,7.62,12.13,7.66.6,12.48-2.05,12.48-2.05l.4-3.9,0,0c3.33,5.52,12,5.95,12.41,6,1.56-1.77,7.94-8.41,20.85-14.53H146.43l-.68,2a7.15,7.15,0,0,1-7,5.44c-4.59,0-2.25-6.46-2.25-6.46l4.15-11.14C143,20.54,145.44,20,146.35,20c6,0,3.14,7.31,3.14,7.31l-.14.4h11.86a80.6,80.6,0,0,0-2.47,7.91,105.44,105.44,0,0,1,14.16-5.29l1.77-4.75c1.88-5.48,5.74-6,6.65-5.92,6,.23,3.14,7.31,3.14,7.31l-.2.58a143.74,143.74,0,0,1,24.91-2.78c1-1.9,3-4.31,6.48-3.73,1.27.21,1.95,1.43,1.86,3.65l2.38,0c3.64,0,7.42.19,11.34.44.84-1.84,2.58-4.52,5.61-4.55,1.59,0,3.11.54,2.14,5.43,3.47.33,9.6,1.23,13.08,1.79l1.12-4.22S256.21,13.8,243.67,12.74ZM67.86,27.33,64.12,38.1a7.13,7.13,0,0,1-7,5.44c-5.83-.07-3.15-6.47-3.15-6.47l4.15-11.14c1.87-5.48,5.74-6,6.65-5.92C70.73,20.25,67.86,27.33,67.86,27.33ZM129,22.1c-2.09,3.53-4,9.16-5.26,14.07a11.2,11.2,0,0,0,.39,7.76c-7.89,1.92-5.85-5.1-5.85-5.1L123,22.15l6-.09Z" style="fill: #0097cd"></path>
            </g>
        </svg>